<?xml version="1.0" encoding="UTF-8" standalone="no"?>
<!-- Created with Inkscape (http://www.inkscape.org/) -->

<svg
   xmlns:dc="http://purl.org/dc/elements/1.1/"
   xmlns:cc="http://creativecommons.org/ns#"
   xmlns:rdf="http://www.w3.org/1999/02/22-rdf-syntax-ns#"
   xmlns:svg="http://www.w3.org/2000/svg"
   xmlns="http://www.w3.org/2000/svg"
   xmlns:xlink="http://www.w3.org/1999/xlink"
   xmlns:sodipodi="http://sodipodi.sourceforge.net/DTD/sodipodi-0.dtd"
   xmlns:inkscape="http://www.inkscape.org/namespaces/inkscape"
   width="210mm"
   height="297mm"
   viewBox="0 0 744.09448819 1052.3622047"
   id="svg4335"
   version="1.1"
   inkscape:version="0.91 r13725"
   sodipodi:docname="hand.svg">
  <defs
     id="defs4337" />
  <sodipodi:namedview
     id="base"
     pagecolor="#ffffff"
     bordercolor="#666666"
     borderopacity="1.0"
     inkscape:pageopacity="0.0"
     inkscape:pageshadow="2"
     inkscape:zoom="0.76177537"
     inkscape:cx="402.85741"
     inkscape:cy="644.36631"
     inkscape:document-units="px"
     inkscape:current-layer="layer6"
     showgrid="false"
     inkscape:window-width="1366"
     inkscape:window-height="722"
     inkscape:window-x="0"
     inkscape:window-y="24"
     inkscape:window-maximized="1" />
  <metadata
     id="metadata4340">
    <rdf:RDF>
      <cc:Work
         rdf:about="">
        <dc:format>image/svg+xml</dc:format>
        <dc:type
           rdf:resource="http://purl.org/dc/dcmitype/StillImage" />
        <dc:title></dc:title>
      </cc:Work>
    </rdf:RDF>
  </metadata>
  <g
     inkscape:label="Layer 1"
     inkscape:groupmode="layer"
     id="layer1">
    <image
       y="140.27197"
       x="134.10034"
       id="image4321"
       style="image-rendering:optimizeQuality"
       preserveAspectRatio="none"
       height="600"
       width="416.25"
       inkscape:export-filename="/home/bizarro/Documents/chebizarro@gmail.com/Work/Resources/Training/teachables/plan-hand.png"
       inkscape:export-xdpi="90"
       inkscape:export-ydpi="90"
       xlink:href="/home/bizarro/Documents/chebizarro@gmail.com/Security Commons/hand.png"
       sodipodi:absref="/home/bizarro/Documents/chebizarro@gmail.com/Security Commons/hand.png" />
    <path
       style="color:#000000;clip-rule:nonzero;display:inline;overflow:visible;visibility:visible;opacity:1;isolation:auto;mix-blend-mode:normal;color-interpolation:sRGB;color-interpolation-filters:linearRGB;solid-color:#000000;solid-opacity:1;fill:none;fill-opacity:1;fill-rule:nonzero;stroke:none;stroke-width:3.23861647;stroke-miterlimit:4;stroke-dasharray:none;stroke-opacity:1;marker:none;color-rendering:auto;image-rendering:auto;shape-rendering:auto;text-rendering:auto;enable-background:accumulate"
       d="m 97.187927,112.06219 566.076783,0 0,629.93371 -566.076783,0 z"
       id="rect4324" />
  </g>
  <g
     inkscape:groupmode="layer"
     id="layer3"
     inkscape:label="When">
    <path
       transform="matrix(0,-1,1,0,0,0)"
       style="color:#000000;display:inline;overflow:visible;visibility:visible;opacity:0.98999999;fill:none;fill-opacity:1;fill-rule:nonzero;stroke:#ff0000;stroke-width:2;stroke-linejoin:miter;stroke-miterlimit:4;stroke-dasharray:none;stroke-dashoffset:0;stroke-opacity:1;marker:none;enable-background:accumulate"
       d="m -201.87515,317.01709 a 32.105167,32.105167 0 0 1 -32.10517,32.10517 32.105167,32.105167 0 0 1 -32.10516,-32.10517 32.105167,32.105167 0 0 1 32.10516,-32.10517 32.105167,32.105167 0 0 1 32.10517,32.10517 z"
       id="path4371-0" />
    <path
       style="fill:none;fill-rule:evenodd;stroke:#ff0000;stroke-width:2;stroke-linecap:butt;stroke-linejoin:miter;stroke-miterlimit:4;stroke-dasharray:none;stroke-opacity:1"
       d="m 285.64153,234.70997 -121.9674,0"
       id="path4373-4"
       inkscape:connector-curvature="0"
       sodipodi:nodetypes="cc"
       inkscape:export-filename="/home/bizarro/Documents/chebizarro@gmail.com/Work/Resources/Training/teachables/plan-hand.png"
       inkscape:export-xdpi="90"
       inkscape:export-ydpi="90" />
    <g
       style="font-style:normal;font-weight:normal;font-size:40px;line-height:125%;font-family:Sans;letter-spacing:0px;word-spacing:0px;fill:#000000;fill-opacity:1;stroke:none;stroke-width:1px;stroke-linecap:butt;stroke-linejoin:miter;stroke-opacity:1"
       id="text4375-8">
      <path
         d="m 194.42803,224.44922 7.68,-28.56 -6.16,0 -4.68,19.68 -0.08,0 -4.88,-19.68 -5.88,0 -4.96,19.44 -0.08,0 -4.52,-19.44 -6.28,0 7.56,28.56 6.36,0 4.76,-19.44 0.08,0 4.84,19.44 6.24,0 z"
         style="fill:#ff0000"
         id="path4951" />
      <path
         d="m 204.36241,195.88922 0,28.56 5.68,0 0,-10.84 q 0,-3.16 1.04,-4.52 1.04,-1.4 3.36,-1.4 2.04,0 2.84,1.28 0.8,1.24 0.8,3.8 l 0,11.68 5.68,0 0,-12.72 q 0,-1.92 -0.36,-3.48 -0.32,-1.6 -1.16,-2.68 -0.84,-1.12 -2.32,-1.72 -1.44,-0.64 -3.72,-0.64 -1.6,0 -3.28,0.84 -1.68,0.8 -2.76,2.6 l -0.12,0 0,-10.76 -5.68,0 z"
         style="font-style:normal;font-variant:normal;font-weight:bold;font-stretch:normal;font-family:'Helvetica Neue';-inkscape-font-specification:'Helvetica Neue Bold'"
         id="path4953" />
      <path
         d="m 242.03241,211.88922 -9.24,0 q 0.04,-0.6 0.24,-1.36 0.24,-0.76 0.76,-1.44 0.56,-0.68 1.44,-1.12 0.92,-0.48 2.28,-0.48 2.08,0 3.08,1.12 1.04,1.12 1.44,3.28 z m -9.24,3.6 14.92,0 q 0.16,-2.4 -0.4,-4.6 -0.56,-2.2 -1.84,-3.92 -1.24,-1.72 -3.2,-2.72 -1.96,-1.04 -4.6,-1.04 -2.36,0 -4.32,0.84 -1.92,0.84 -3.32,2.32 -1.4,1.44 -2.16,3.44 -0.76,2 -0.76,4.32 0,2.4 0.72,4.4 0.76,2 2.12,3.44 1.36,1.44 3.32,2.24 1.96,0.76 4.4,0.76 3.52,0 6,-1.6 2.48,-1.6 3.68,-5.32 l -5,0 q -0.28,0.96 -1.52,1.84 -1.24,0.84 -2.96,0.84 -2.4,0 -3.68,-1.24 -1.28,-1.24 -1.4,-4 z"
         style="font-style:normal;font-variant:normal;font-weight:bold;font-stretch:normal;font-family:'Helvetica Neue';-inkscape-font-specification:'Helvetica Neue Bold'"
         id="path4955" />
      <path
         d="m 251.08116,203.76922 0,20.68 5.68,0 0,-10.84 q 0,-3.16 1.04,-4.52 1.04,-1.4 3.36,-1.4 2.04,0 2.84,1.28 0.8,1.24 0.8,3.8 l 0,11.68 5.68,0 0,-12.72 q 0,-1.92 -0.36,-3.48 -0.32,-1.6 -1.16,-2.68 -0.84,-1.12 -2.32,-1.72 -1.44,-0.64 -3.72,-0.64 -1.8,0 -3.52,0.84 -1.72,0.8 -2.8,2.6 l -0.12,0 0,-2.88 -5.4,0 z"
         style="font-style:normal;font-variant:normal;font-weight:bold;font-stretch:normal;font-family:'Helvetica Neue';-inkscape-font-specification:'Helvetica Neue Bold'"
         id="path4957" />
    </g>
  </g>
  <g
     inkscape:groupmode="layer"
     id="layer2"
     inkscape:label="What">
    <circle
       style="color:#000000;display:inline;overflow:visible;visibility:visible;opacity:0.98999999;fill:none;fill-opacity:1;fill-rule:nonzero;stroke:#ff0000;stroke-width:2;stroke-linejoin:miter;stroke-miterlimit:4;stroke-dasharray:none;stroke-dashoffset:0;stroke-opacity:1;marker:none;enable-background:accumulate"
       id="path4371"
       cx="160.4104"
       cy="401.65414"
       r="32.105167"
       inkscape:export-filename="/home/bizarro/Documents/chebizarro@gmail.com/Work/Resources/Training/teachables/plan-hand.png"
       inkscape:export-xdpi="90"
       inkscape:export-ydpi="90" />
    <path
       style="fill:none;fill-rule:evenodd;stroke:#ff0000;stroke-width:2;stroke-linecap:butt;stroke-linejoin:miter;stroke-miterlimit:4;stroke-dasharray:none;stroke-opacity:1"
       d="m 159.68073,370.27855 0,-77.34427"
       id="path4373"
       inkscape:connector-curvature="0"
       sodipodi:nodetypes="cc"
       inkscape:export-filename="/home/bizarro/Documents/chebizarro@gmail.com/Work/Resources/Training/teachables/plan-hand.png"
       inkscape:export-xdpi="90"
       inkscape:export-ydpi="90" />
    <text
       xml:space="preserve"
       style="font-style:normal;font-weight:normal;font-size:40px;line-height:125%;font-family:Sans;letter-spacing:0px;word-spacing:0px;fill:#000000;fill-opacity:1;stroke:none;stroke-width:1px;stroke-linecap:butt;stroke-linejoin:miter;stroke-opacity:1"
       x="166.89677"
       y="320.66147"
       id="text4375"
       sodipodi:linespacing="125%"
       inkscape:export-filename="/home/bizarro/Documents/chebizarro@gmail.com/Work/Resources/Training/teachables/plan-hand.png"
       inkscape:export-xdpi="90"
       inkscape:export-ydpi="90"><tspan
         sodipodi:role="line"
         id="tspan4377"
         x="166.89677"
         y="320.66147"
         style="font-style:normal;font-variant:normal;font-weight:bold;font-stretch:normal;font-family:'Helvetica Neue';-inkscape-font-specification:'Helvetica Neue Bold'"><tspan
   style="fill:#ff0000"
   id="tspan4379">W</tspan>hat</tspan></text>
  </g>
  <g
     inkscape:groupmode="layer"
     id="layer4"
     inkscape:label="Who">
    <path
       transform="matrix(0,-1,1,0,0,0)"
       style="color:#000000;display:inline;overflow:visible;visibility:visible;opacity:0.98999999;fill:none;fill-opacity:1;fill-rule:nonzero;stroke:#ff0000;stroke-width:2;stroke-linejoin:miter;stroke-miterlimit:4;stroke-dasharray:none;stroke-dashoffset:0;stroke-opacity:1;marker:none;enable-background:accumulate"
       d="m -143.6311,372.33905 a 32.105167,32.105167 0 0 1 -32.10517,32.10517 32.105167,32.105167 0 0 1 -32.10516,-32.10517 32.105167,32.105167 0 0 1 32.10516,-32.10517 32.105167,32.105167 0 0 1 32.10517,32.10517 z"
       id="path4371-0-8" />
    <path
       style="fill:none;fill-rule:evenodd;stroke:#ff0000;stroke-width:2;stroke-linecap:butt;stroke-linejoin:miter;stroke-miterlimit:4;stroke-dasharray:none;stroke-opacity:1"
       d="m 340.96349,176.4659 -88.50006,0"
       id="path4373-4-6"
       inkscape:connector-curvature="0"
       sodipodi:nodetypes="cc"
       inkscape:export-filename="/home/bizarro/Documents/chebizarro@gmail.com/Work/Resources/Training/teachables/plan-hand.png"
       inkscape:export-xdpi="90"
       inkscape:export-ydpi="90" />
    <g
       style="font-style:normal;font-weight:normal;font-size:40px;line-height:125%;font-family:Sans;letter-spacing:0px;word-spacing:0px;fill:#000000;fill-opacity:1;stroke:none;stroke-width:1px;stroke-linecap:butt;stroke-linejoin:miter;stroke-opacity:1"
       id="text4375-8-2">
      <path
         d="m 280.73826,166.20514 7.68,-28.56 -6.16,0 -4.68,19.68 -0.08,0 -4.88,-19.68 -5.88,0 -4.96,19.44 -0.08,0 -4.52,-19.44 -6.28,0 7.56,28.56 6.36,0 4.76,-19.44 0.08,0 4.84,19.44 6.24,0 z"
         style="fill:#ff0000"
         id="path4961" />
      <path
         d="m 290.67263,137.64514 0,28.56 5.68,0 0,-10.84 q 0,-3.16 1.04,-4.52 1.04,-1.4 3.36,-1.4 2.04,0 2.84,1.28 0.8,1.24 0.8,3.8 l 0,11.68 5.68,0 0,-12.72 q 0,-1.92 -0.36,-3.48 -0.32,-1.6 -1.16,-2.68 -0.84,-1.12 -2.32,-1.72 -1.44,-0.64 -3.72,-0.64 -1.6,0 -3.28,0.84 -1.68,0.8 -2.76,2.6 l -0.12,0 0,-10.76 -5.68,0 z"
         style="font-style:normal;font-variant:normal;font-weight:bold;font-stretch:normal;font-family:'Helvetica Neue';-inkscape-font-specification:'Helvetica Neue Bold'"
         id="path4963" />
      <path
         d="m 319.46263,155.88514 q 0,-1.24 0.24,-2.44 0.24,-1.2 0.8,-2.12 0.6,-0.92 1.56,-1.48 0.96,-0.6 2.4,-0.6 1.44,0 2.4,0.6 1,0.56 1.56,1.48 0.6,0.92 0.84,2.12 0.24,1.2 0.24,2.44 0,1.24 -0.24,2.44 -0.24,1.16 -0.84,2.12 -0.56,0.92 -1.56,1.48 -0.96,0.56 -2.4,0.56 -1.44,0 -2.4,-0.56 -0.96,-0.56 -1.56,-1.48 -0.56,-0.96 -0.8,-2.12 -0.24,-1.2 -0.24,-2.44 z m -5.68,0 q 0,2.48 0.76,4.48 0.76,2 2.16,3.44 1.4,1.4 3.36,2.16 1.96,0.76 4.4,0.76 2.44,0 4.4,-0.76 2,-0.76 3.4,-2.16 1.4,-1.44 2.16,-3.44 0.76,-2 0.76,-4.48 0,-2.48 -0.76,-4.48 -0.76,-2.04 -2.16,-3.44 -1.4,-1.44 -3.4,-2.2 -1.96,-0.8 -4.4,-0.8 -2.44,0 -4.4,0.8 -1.96,0.76 -3.36,2.2 -1.4,1.4 -2.16,3.44 -0.76,2 -0.76,4.48 z"
         style="font-style:normal;font-variant:normal;font-weight:bold;font-stretch:normal;font-family:'Helvetica Neue';-inkscape-font-specification:'Helvetica Neue Bold'"
         id="path4965" />
    </g>
  </g>
  <g
     inkscape:groupmode="layer"
     id="layer5"
     inkscape:label="Where">
    <path
       transform="matrix(0,-1,1,0,0,0)"
       style="color:#000000;display:inline;overflow:visible;visibility:visible;opacity:0.98999999;fill:none;fill-opacity:1;fill-rule:nonzero;stroke:#ff0000;stroke-width:2;stroke-linejoin:miter;stroke-miterlimit:4;stroke-dasharray:none;stroke-dashoffset:0;stroke-opacity:1;marker:none;enable-background:accumulate"
       d="m -185.77517,433.33557 a 32.105167,32.105167 0 0 1 -32.10517,32.10517 32.105167,32.105167 0 0 1 -32.10517,-32.10517 32.105167,32.105167 0 0 1 32.10517,-32.10517 32.105167,32.105167 0 0 1 32.10517,32.10517 z"
       id="path4371-0-8-9" />
    <path
       style="fill:none;fill-rule:evenodd;stroke:#ff0000;stroke-width:2;stroke-linecap:butt;stroke-linejoin:miter;stroke-miterlimit:4;stroke-dasharray:none;stroke-opacity:1"
       d="m 592.84786,218.60996 -128.16507,0"
       id="path4373-4-6-3"
       inkscape:connector-curvature="0"
       sodipodi:nodetypes="cc"
       inkscape:export-filename="/home/bizarro/Documents/chebizarro@gmail.com/Work/Resources/Training/teachables/plan-hand.png"
       inkscape:export-xdpi="90"
       inkscape:export-ydpi="90" />
    <g
       style="font-style:normal;font-weight:normal;font-size:40px;line-height:125%;font-family:Sans;letter-spacing:0px;word-spacing:0px;fill:#000000;fill-opacity:1;stroke:none;stroke-width:1px;stroke-linecap:butt;stroke-linejoin:miter;stroke-opacity:1"
       id="text4375-8-2-9">
      <path
         d="m 502.87388,210.82828 7.68,-28.56 -6.16,0 -4.68,19.68 -0.08,0 -4.88,-19.68 -5.88,0 -4.96,19.44 -0.08,0 -4.52,-19.44 -6.28,0 7.56,28.56 6.36,0 4.76,-19.44 0.08,0 4.84,19.44 6.24,0 z"
         style="fill:#ff0000"
         id="path4969" />
      <path
         d="m 512.80825,182.26828 0,28.56 5.68,0 0,-10.84 q 0,-3.16 1.04,-4.52 1.04,-1.4 3.36,-1.4 2.04,0 2.84,1.28 0.8,1.24 0.8,3.8 l 0,11.68 5.68,0 0,-12.72 q 0,-1.92 -0.36,-3.48 -0.32,-1.6 -1.16,-2.68 -0.84,-1.12 -2.32,-1.72 -1.44,-0.64 -3.72,-0.64 -1.6,0 -3.28,0.84 -1.68,0.8 -2.76,2.6 l -0.12,0 0,-10.76 -5.68,0 z"
         style="font-style:normal;font-variant:normal;font-weight:bold;font-stretch:normal;font-family:'Helvetica Neue';-inkscape-font-specification:'Helvetica Neue Bold'"
         id="path4971" />
      <path
         d="m 550.47825,198.26828 -9.24,0 q 0.04,-0.6 0.24,-1.36 0.24,-0.76 0.76,-1.44 0.56,-0.68 1.44,-1.12 0.92,-0.48 2.28,-0.48 2.08,0 3.08,1.12 1.04,1.12 1.44,3.28 z m -9.24,3.6 14.92,0 q 0.16,-2.4 -0.4,-4.6 -0.56,-2.2 -1.84,-3.92 -1.24,-1.72 -3.2,-2.72 -1.96,-1.04 -4.6,-1.04 -2.36,0 -4.32,0.84 -1.92,0.84 -3.32,2.32 -1.4,1.44 -2.16,3.44 -0.76,2 -0.76,4.32 0,2.4 0.72,4.4 0.76,2 2.12,3.44 1.36,1.44 3.32,2.24 1.96,0.76 4.4,0.76 3.52,0 6,-1.6 2.48,-1.6 3.68,-5.32 l -5,0 q -0.28,0.96 -1.52,1.84 -1.24,0.84 -2.96,0.84 -2.4,0 -3.68,-1.24 -1.28,-1.24 -1.4,-4 z"
         style="font-style:normal;font-variant:normal;font-weight:bold;font-stretch:normal;font-family:'Helvetica Neue';-inkscape-font-specification:'Helvetica Neue Bold'"
         id="path4973" />
      <path
         d="m 559.527,190.14828 0,20.68 5.68,0 0,-9.32 q 0,-1.4 0.28,-2.6 0.28,-1.2 0.92,-2.08 0.68,-0.92 1.76,-1.44 1.08,-0.52 2.64,-0.52 0.52,0 1.08,0.08 0.56,0.04 0.96,0.12 l 0,-5.28 q -0.68,-0.2 -1.24,-0.2 -1.08,0 -2.08,0.32 -1,0.32 -1.88,0.92 -0.88,0.56 -1.56,1.4 -0.68,0.8 -1.08,1.76 l -0.08,0 0,-3.84 -5.4,0 z"
         style="font-style:normal;font-variant:normal;font-weight:bold;font-stretch:normal;font-family:'Helvetica Neue';-inkscape-font-specification:'Helvetica Neue Bold'"
         id="path4975" />
      <path
         d="m 588.99388,198.26828 -9.24,0 q 0.04,-0.6 0.24,-1.36 0.24,-0.76 0.76,-1.44 0.56,-0.68 1.44,-1.12 0.92,-0.48 2.28,-0.48 2.08,0 3.08,1.12 1.04,1.12 1.44,3.28 z m -9.24,3.6 14.92,0 q 0.16,-2.4 -0.4,-4.6 -0.56,-2.2 -1.84,-3.92 -1.24,-1.72 -3.2,-2.72 -1.96,-1.04 -4.6,-1.04 -2.36,0 -4.32,0.84 -1.92,0.84 -3.32,2.32 -1.4,1.44 -2.16,3.44 -0.76,2 -0.76,4.32 0,2.4 0.72,4.4 0.76,2 2.12,3.44 1.36,1.44 3.32,2.24 1.96,0.76 4.4,0.76 3.52,0 6,-1.6 2.48,-1.6 3.68,-5.32 l -5,0 q -0.28,0.96 -1.52,1.84 -1.24,0.84 -2.96,0.84 -2.4,0 -3.68,-1.24 -1.28,-1.24 -1.4,-4 z"
         style="font-style:normal;font-variant:normal;font-weight:bold;font-stretch:normal;font-family:'Helvetica Neue';-inkscape-font-specification:'Helvetica Neue Bold'"
         id="path4977" />
    </g>
  </g>
  <g
     inkscape:groupmode="layer"
     id="layer6"
     inkscape:label="How">
    <path
       transform="matrix(0,-1,1,0,0,0)"
       style="color:#000000;display:inline;overflow:visible;visibility:visible;opacity:0.98999999;fill:none;fill-opacity:1;fill-rule:nonzero;stroke:#ff0000;stroke-width:2;stroke-linejoin:miter;stroke-miterlimit:4;stroke-dasharray:none;stroke-dashoffset:0;stroke-opacity:1;marker:none;enable-background:accumulate"
       d="m -245.27267,505.12576 a 32.105167,32.105167 0 0 1 -32.10517,32.10517 32.105167,32.105167 0 0 1 -32.10517,-32.10517 32.105167,32.105167 0 0 1 32.10517,-32.10516 32.105167,32.105167 0 0 1 32.10517,32.10516 z"
       id="path4371-0-8-9-1" />
    <path
       style="fill:none;fill-rule:evenodd;stroke:#ff0000;stroke-width:2;stroke-linecap:butt;stroke-linejoin:miter;stroke-miterlimit:4;stroke-dasharray:none;stroke-opacity:1"
       d="m 627.45212,278.10745 -90.97913,0"
       id="path4373-4-6-3-5"
       inkscape:connector-curvature="0"
       sodipodi:nodetypes="cc"
       inkscape:export-filename="/home/bizarro/Documents/chebizarro@gmail.com/Work/Resources/Training/teachables/plan-hand.png"
       inkscape:export-xdpi="90"
       inkscape:export-ydpi="90" />
    <g
       style="font-style:normal;font-weight:normal;font-size:40px;line-height:125%;font-family:Sans;letter-spacing:0px;word-spacing:0px;fill:#000000;fill-opacity:1;stroke:none;stroke-width:1px;stroke-linecap:butt;stroke-linejoin:miter;stroke-opacity:1"
       id="text4375-8-2-9-4">
      <path
         d="m 546.86416,241.76578 0,28.56 5.68,0 0,-10.84 q 0,-3.16 1.04,-4.52 1.04,-1.4 3.36,-1.4 2.04,0 2.84,1.28 0.8,1.24 0.8,3.8 l 0,11.68 5.68,0 0,-12.72 q 0,-1.92 -0.36,-3.48 -0.32,-1.6 -1.16,-2.68 -0.84,-1.12 -2.32,-1.72 -1.44,-0.64 -3.72,-0.64 -1.6,0 -3.28,0.84 -1.68,0.8 -2.76,2.6 l -0.12,0 0,-10.76 -5.68,0 z"
         style="fill:#000000"
         id="path4981" />
      <path
         d="m 575.65416,260.00578 q 0,-1.24 0.24,-2.44 0.24,-1.2 0.8,-2.12 0.6,-0.92 1.56,-1.48 0.96,-0.6 2.4,-0.6 1.44,0 2.4,0.6 1,0.56 1.56,1.48 0.6,0.92 0.84,2.12 0.24,1.2 0.24,2.44 0,1.24 -0.24,2.44 -0.24,1.16 -0.84,2.12 -0.56,0.92 -1.56,1.48 -0.96,0.56 -2.4,0.56 -1.44,0 -2.4,-0.56 -0.96,-0.56 -1.56,-1.48 -0.56,-0.96 -0.8,-2.12 -0.24,-1.2 -0.24,-2.44 z m -5.68,0 q 0,2.48 0.76,4.48 0.76,2 2.16,3.44 1.4,1.4 3.36,2.16 1.96,0.76 4.4,0.76 2.44,0 4.4,-0.76 2,-0.76 3.4,-2.16 1.4,-1.44 2.16,-3.44 0.76,-2 0.76,-4.48 0,-2.48 -0.76,-4.48 -0.76,-2.04 -2.16,-3.44 -1.4,-1.44 -3.4,-2.2 -1.96,-0.8 -4.4,-0.8 -2.44,0 -4.4,0.8 -1.96,0.76 -3.36,2.2 -1.4,1.4 -2.16,3.44 -0.76,2 -0.76,4.48 z"
         style="fill:#000000"
         id="path4983" />
      <path
         d="m 622.86729,270.32578 7.68,-28.56 -6.16,0 -4.68,19.68 -0.08,0 -4.88,-19.68 -5.88,0 -4.96,19.44 -0.08,0 -4.52,-19.44 -6.28,0 7.56,28.56 6.36,0 4.76,-19.44 0.08,0 4.84,19.44 6.24,0 z"
         style="fill:#ff0000"
         id="path4985" />
    </g>
  </g>
</svg>
